<svg width="106" height="106" viewBox="0 0 106 106" fill="none" xmlns="http://www.w3.org/2000/svg">
<rect width="106" height="106" rx="5" fill="#443325"/>
<path d="M49.2107 66.4258H33.4792L30.2653 76.3637C30.2294 76.5448 30.127 76.706 29.9784 76.8155C29.8297 76.9251 29.6455 76.9751 29.4618 76.9557H21.5115C21.0463 76.9557 20.9195 76.702 21.0463 76.1945L35.3051 32.8918C35.3798 32.6651 35.4761 32.3833 35.7148 32.3833H46.6311C46.9694 32.3833 47.1385 32.5102 47.1808 32.7216L62.6163 76.2791C62.7431 76.7443 62.6163 76.9557 62.1934 76.9557H53.355C53.2055 76.9701 53.0558 76.9314 52.932 76.8463C52.8083 76.7612 52.7185 76.6353 52.6784 76.4906L49.2107 66.4258ZM35.932 57.8412H46.6734C46.4196 56.9531 46.0813 55.8959 45.7007 54.7964C45.3201 53.6969 44.9395 52.4282 44.5589 51.1595C44.1783 49.8909 43.7554 48.5799 43.3325 47.269C42.9097 45.958 42.5291 44.7316 42.1907 43.5053C41.8524 42.2789 41.5564 41.2217 41.2604 40.2067H41.1758C40.7958 42.0499 40.3158 43.871 39.738 45.662C39.1037 47.6919 38.4693 49.8063 37.7927 51.9207C37.2007 54.0775 36.5663 56.0651 35.932 57.8412Z" fill="#EBEBEB"/>
<path d="M71.8351 39.6147C71.1409 39.6299 70.4507 39.5068 69.8045 39.2527C69.1584 38.9986 68.5692 38.6185 68.0714 38.1346C67.1025 37.0752 66.5864 35.6788 66.6335 34.244C66.6086 33.5449 66.7312 32.8484 66.9936 32.1999C67.2559 31.5513 67.6519 30.9654 68.1559 30.4803C69.1724 29.5195 70.5211 28.9892 71.9196 29.0002C73.5689 29.0002 74.8376 29.5076 75.7679 30.4803C76.7048 31.5057 77.2054 32.8557 77.1635 34.244C77.1893 34.9585 77.0716 35.6709 76.8174 36.3391C76.5631 37.0074 76.1775 37.6179 75.6834 38.1346C75.1851 38.6421 74.5837 39.0369 73.9198 39.2922C73.256 39.5475 72.5451 39.6575 71.8351 39.6147ZM67.0987 76.3214V43.759C67.0987 43.3361 67.2679 43.1669 67.6485 43.1669H76.0217C76.4023 43.1669 76.5714 43.3784 76.5714 43.759V76.3214C76.5714 76.7866 76.4023 76.998 76.0217 76.998H67.7331C67.6442 77.0053 67.5548 76.9925 67.4716 76.9604C67.3884 76.9284 67.3135 76.8779 67.2525 76.8129C67.1915 76.7478 67.146 76.6698 67.1194 76.5847C67.0927 76.4996 67.0857 76.4096 67.0987 76.3214Z" fill="#EBEBEB"/>
</svg>
