<svg width="106" height="106" viewBox="0 0 106 106" fill="none" xmlns="http://www.w3.org/2000/svg">
<rect width="106" height="106" rx="5" fill="#443325"/>
<circle cx="65" cy="53" r="12" fill="#D2D2D2"/>
<path d="M53 41H41C34.3726 41 29 35.6274 29 29C29 22.3726 34.3726 17 41 17H53V41Z" fill="#D2D2D2"/>
<path d="M53 65H41C34.3726 65 29 59.6274 29 53C29 46.3726 34.3726 41 41 41H53V65Z" fill="#EBEBEB"/>
<path d="M53 41H65C71.6274 41 77 35.6274 77 29C77 22.3726 71.6274 17 65 17H53V41Z" fill="#EBEBEB"/>
<path d="M32.8404 86.4838C27.8716 81.6493 27.7021 73.6389 32.4618 68.592C34.9548 66.3005 37.7871 65.4241 40.2575 65.1862C44.454 64.7822 52.9497 65.1614 52.9497 65.1614C52.9497 65.1614 53.0799 73.6634 52.9213 77.6823C52.8071 80.5778 52.2285 83.889 50.4555 86.0993C45.6958 91.1462 37.8092 91.3183 32.8404 86.4838Z" fill="#D2D2D2"/>
<path d="M53 65H41C34.3726 65 29 59.6274 29 53C29 46.3726 34.3726 41 41 41H53V65Z" fill="#EBEBEB"/>
</svg>
