<svg width="106" height="106" viewBox="0 0 106 106" fill="none" xmlns="http://www.w3.org/2000/svg">
<rect width="106" height="106" rx="5" fill="#443325"/>
<path d="M21 75.6531V29.7582C21 29.446 21.1338 29.2676 21.446 29.2676C22.2042 29.2676 22.9179 29.2676 23.9437 29.223C24.9695 29.1784 26.1292 29.1784 27.3334 29.1338C28.5376 29.0892 29.8311 29.0892 31.2137 29.0446C32.5964 29 33.9344 29 35.2724 29C38.9298 29 41.9627 29.446 44.4603 30.3826C46.6993 31.143 48.7409 32.3923 50.4369 34.04C51.8741 35.4818 52.9845 37.2159 53.6928 39.1245C54.368 40.9833 54.7151 42.9451 54.7187 44.9227C54.7187 48.7584 53.8266 51.9251 52.0426 54.4228C50.2502 56.9171 47.7478 58.8133 44.8617 59.8642C41.8289 60.9792 38.4837 61.3806 34.8264 61.3806C33.756 61.3806 33.0424 61.3806 32.5964 61.336C32.1504 61.2914 31.5259 61.2914 30.6785 61.2914V75.6085C30.6885 75.6819 30.6836 75.7565 30.6641 75.828C30.6447 75.8994 30.6111 75.9663 30.5653 76.0245C30.5196 76.0827 30.4626 76.1312 30.3978 76.167C30.3329 76.2028 30.2616 76.2252 30.1879 76.2329H21.5352C21.1784 76.2329 21 76.0545 21 75.6531ZM30.7231 37.8757V52.8618C31.3475 52.9064 31.9273 52.951 32.4626 52.951H34.8264C36.5676 52.953 38.2983 52.6821 39.9556 52.1481C41.3774 51.73 42.6477 50.909 43.6129 49.7843C44.5495 48.6692 44.9956 47.1528 44.9956 45.1903C45.0375 43.7966 44.6817 42.4197 43.9697 41.2208C43.226 40.0627 42.1323 39.1721 40.8476 38.6785C39.1732 38.0227 37.3816 37.7191 35.5847 37.7865C34.425 37.7865 33.3992 37.7865 32.5518 37.8311C31.9421 37.7912 31.3301 37.8062 30.7231 37.8757Z" fill="#EBEBEB"/>
<path d="M82.5501 50.141C81.2034 49.4317 79.7612 48.9209 78.2683 48.6245C76.6287 48.2532 74.954 48.0588 73.273 48.0447C72.3703 48.0136 71.4681 48.1188 70.5969 48.3569C70.0414 48.4725 69.5486 48.7904 69.2143 49.2489C68.9889 49.6108 68.8656 50.0269 68.8574 50.4532C68.8782 50.8775 69.0345 51.2839 69.3035 51.6128C69.7262 52.1086 70.2412 52.5176 70.8199 52.817C71.8457 53.3523 72.9162 53.8429 73.9866 54.2889C76.3963 55.1001 78.7018 56.193 80.8552 57.5448C82.3199 58.4658 83.5312 59.7383 84.3787 61.2467C85.0955 62.6696 85.4479 64.2481 85.4046 65.8406C85.4407 67.9488 84.834 70.0179 83.6651 71.7726C82.4211 73.5531 80.6852 74.9325 78.6698 75.7422C76.4843 76.6788 73.8082 77.1694 70.5969 77.1694C68.5608 77.1776 66.5288 76.9834 64.5311 76.5896C62.9581 76.3178 61.4282 75.8378 59.9818 75.1623C59.8263 75.0843 59.697 74.9625 59.6098 74.812C59.5226 74.6614 59.4814 74.4886 59.4912 74.3149V66.5543C59.4873 66.4781 59.5014 66.402 59.5324 66.3323C59.5634 66.2625 59.6104 66.2011 59.6696 66.1529C59.7324 66.1162 59.8053 66.1008 59.8776 66.1088C59.9499 66.1169 60.0177 66.1479 60.071 66.1975C61.789 67.2103 63.6552 67.9478 65.6015 68.3829C67.32 68.8301 69.0888 69.0549 70.8645 69.0519C72.5594 69.0519 73.7636 68.8289 74.5664 68.4275C74.9245 68.2621 75.228 67.998 75.4413 67.6662C75.6546 67.3344 75.7689 66.9487 75.7707 66.5543C75.7707 65.9298 75.4139 65.35 74.7002 64.7702C73.9866 64.1904 72.5148 63.5214 70.3293 62.6739C68.0873 61.8839 65.9581 60.8044 63.9959 59.4626C62.5983 58.4665 61.4403 57.1714 60.6062 55.6715C59.8944 54.2629 59.542 52.7 59.5804 51.1222C59.5869 49.219 60.1111 47.3535 61.0968 45.7254C62.2298 43.9349 63.8561 42.51 65.7799 41.6221C67.8762 40.5517 70.5077 40.061 73.6744 40.061C75.5252 40.0616 77.3735 40.1957 79.205 40.4624C80.5218 40.6406 81.8107 40.9853 83.0407 41.4883C83.2367 41.5577 83.3971 41.7021 83.4867 41.8897C83.5381 42.0638 83.5681 42.2435 83.5759 42.4249V49.6949C83.5766 49.7816 83.5568 49.8672 83.518 49.9447C83.4792 50.0223 83.4227 50.0895 83.3529 50.141C83.0934 50.2342 82.8096 50.2342 82.5501 50.141Z" fill="#EBEBEB"/>
</svg>
