<svg width="15" height="21" viewBox="0 0 15 21" fill="none" xmlns="http://www.w3.org/2000/svg">
<path d="M7.5 0.626465C11.3396 0.626465 14.4521 4.12817 14.4521 8.44775C14.4521 11.8797 10.0634 18.0865 8.25977 20.4927C7.87469 21.0064 7.12531 21.0064 6.74023 20.4927C4.9365 18.0864 0.547852 11.8796 0.547852 8.44775C0.547888 4.12823 3.66044 0.626571 7.5 0.626465ZM7.5 3.71729C5.36694 3.71738 3.6377 5.44651 3.6377 7.57959C3.6379 9.7125 5.36706 11.4418 7.5 11.4419C9.63302 11.4419 11.3621 9.71256 11.3623 7.57959C11.3623 5.44644 9.63315 3.71729 7.5 3.71729Z" fill="#E6B285"/>
</svg>
